
<svg width="0" height="0" class="hidden">
    <symbol xmlns="http://www.w3.org/2000/svg" viewBox="0 0 24 24" id="instagram">
        <path d="M7.8 2h8.4C19.4 2 22 4.6 22 7.8v8.4a5.8 5.8 0 0 1-5.8 5.8H7.8C4.6 22 2 19.4 2 16.2V7.8A5.8 5.8 0 0 1 7.8 2m-.2 2A3.6 3.6 0 0 0 4 7.6v8.8C4 18.39 5.61 20 7.6 20h8.8a3.6 3.6 0 0 0 3.6-3.6V7.6C20 5.61 18.39 4 16.4 4H7.6m9.65 1.5a1.25 1.25 0 0 1 1.25 1.25A1.25 1.25 0 0 1 17.25 8 1.25 1.25 0 0 1 16 6.75a1.25 1.25 0 0 1 1.25-1.25M12 7a5 5 0 0 1 5 5 5 5 0 0 1-5 5 5 5 0 0 1-5-5 5 5 0 0 1 5-5m0 2a3 3 0 0 0-3 3 3 3 0 0 0 3 3 3 3 0 0 0 3-3 3 3 0 0 0-3-3z"></path>
    </symbol>
    <symbol xmlns="http://www.w3.org/2000/svg" viewBox="0 0 24 24" id="facebook">
        <path d="M12 2.04c-5.5 0-10 4.49-10 10.02 0 5 3.66 9.15 8.44 9.9v-7H7.9v-2.9h2.54V9.85c0-2.51 1.49-3.89 3.78-3.89 1.09 0 2.23.19 2.23.19v2.47h-1.26c-1.24 0-1.63.77-1.63 1.56v1.88h2.78l-.45 2.9h-2.33v7a10 10 0 0 0 8.44-9.9c0-5.53-4.5-10.02-10-10.02z"></path>
    </symbol>
    <symbol xmlns="http://www.w3.org/2000/svg" viewBox="0 0 24 24" id="twitch">
        <path fill="#000000" d="M11.64 5.93H13.07V10.21H11.64M15.57 5.93H17V10.21H15.57M7 2L3.43 5.57V18.43H7.71V22L11.29 18.43H14.14L20.57 12V2M19.14 11.29L16.29 14.14H13.43L10.93 16.64V14.14H7.71V3.43H19.14Z" />
    </symbol>
</svg>